<?xml version="1.0" encoding="UTF-8"?>
<svg width="512" height="512" viewBox="0 0 512 512" fill="none" xmlns="http://www.w3.org/2000/svg">
  <rect width="512" height="512" rx="128" fill="#4299E1"/>
  <path d="M256 128C187.307 128 128 187.307 128 256C128 324.693 187.307 384 256 384C324.693 384 384 324.693 384 256C384 187.307 324.693 128 256 128ZM256 352C205.888 352 160 306.112 160 256C160 205.888 205.888 160 256 160C306.112 160 352 205.888 352 256C352 306.112 306.112 352 256 352Z" fill="white"/>
  <path d="M256 192C223.49 192 192 223.49 192 256C192 288.51 223.49 320 256 320C288.51 320 320 288.51 320 256C320 223.49 288.51 192 256 192ZM256 288C241.641 288 224 270.359 224 256C224 241.641 241.641 224 256 224C270.359 224 288 241.641 288 256C288 270.359 270.359 288 256 288Z" fill="white"/>
</svg>
